<svg xmlns="http://www.w3.org/2000/svg" width="750" height="750" viewBox="0 0 750 750" version="1.1"><path d="M 606 186.818 C 606 204.169, 627.983 237.167, 654 258.870 C 673.128 274.827, 689.641 283.796, 702.812 285.384 C 708.246 286.039, 709.270 284.675, 708.061 278.395 C 702.395 248.968, 665.646 206.765, 630.626 189.467 C 622.799 185.601, 614.286 183.030, 609.250 183.012 C 606.149 183.001, 606 183.175, 606 186.818 M 351.907 197.515 C 268.634 208.882, 205.224 273.860, 196.067 357.211 C 188.652 424.699, 221.396 491.993, 279.353 528.380 C 351.948 573.956, 446.247 561.829, 504.858 499.379 C 550.322 450.938, 565.459 382.875, 544.859 319.523 C 541.293 308.557, 531.849 288.724, 525.468 278.801 C 500.765 240.385, 461.282 212.088, 417.500 201.420 C 395.958 196.171, 372.141 194.754, 351.907 197.515 M 610 575.599 C 584.453 578.638, 565.376 584.807, 556.751 592.819 L 554.002 595.373 556.229 597.743 C 561.934 603.817, 578.423 610.306, 596.500 613.592 C 604 614.956, 611.501 615.410, 626.500 615.410 C 648.842 615.410, 659.915 613.925, 675.500 608.835 C 684.923 605.758, 690.702 602.805, 695.963 598.378 L 699.101 595.737 696.823 593.311 C 691.102 587.222, 674.507 580.652, 657 577.545 C 647.907 575.931, 617.716 574.681, 610 575.599" stroke="none" fill="#fbfbfb" fill-rule="evenodd"/><path d="M 600.730 142.603 C 600.481 142.852, 598.627 143.267, 596.610 143.526 C 591.366 144.197, 583.494 148.458, 577.997 153.600 C 572.258 158.968, 567.684 168.008, 565.985 177.338 C 562.886 194.360, 571.148 221.116, 586.569 244 C 615.660 287.169, 660.574 320.378, 697 325.650 C 722.868 329.395, 743.735 315.763, 748.150 292.234 C 749.611 284.448, 748.534 272.086, 745.462 261.375 C 742.706 251.766, 735.160 235.506, 729.742 227.500 C 727.881 224.750, 724.948 220.440, 723.225 217.923 C 711.060 200.152, 682.441 172.832, 665.168 162.503 C 664.251 161.954, 662.150 160.558, 660.500 159.400 C 657.443 157.254, 638.766 147.984, 636.659 147.567 C 636.022 147.440, 633.475 146.735, 631 146 C 625.966 144.504, 625.524 144.380, 622 143.474 C 618.956 142.690, 601.363 141.970, 600.730 142.603 M 345.500 157.552 C 262.205 168.766, 192.468 226.757, 165.669 307.094 C 158.362 328.998, 155.039 350.540, 155.039 376 C 155.039 401.460, 158.362 423.002, 165.669 444.906 C 184.644 501.787, 225.034 548.012, 278.500 574.037 C 309.581 589.166, 339.454 596, 374.500 596 C 409.546 596, 439.419 589.166, 470.500 574.037 C 523.966 548.012, 564.356 501.787, 583.331 444.906 C 590.638 423.002, 593.961 401.460, 593.961 376 C 593.961 350.540, 590.638 328.998, 583.331 307.094 C 556.415 226.406, 486.316 168.364, 402.699 157.529 C 388.286 155.662, 359.458 155.673, 345.500 157.552 M 606 186.818 C 606 204.169, 627.983 237.167, 654 258.870 C 673.128 274.827, 689.641 283.796, 702.812 285.384 C 708.246 286.039, 709.270 284.675, 708.061 278.395 C 702.395 248.968, 665.646 206.765, 630.626 189.467 C 622.799 185.601, 614.286 183.030, 609.250 183.012 C 606.149 183.001, 606 183.175, 606 186.818 M 351.907 197.515 C 268.634 208.882, 205.224 273.860, 196.067 357.211 C 188.652 424.699, 221.396 491.993, 279.353 528.380 C 351.948 573.956, 446.247 561.829, 504.858 499.379 C 550.322 450.938, 565.459 382.875, 544.859 319.523 C 541.293 308.557, 531.849 288.724, 525.468 278.801 C 500.765 240.385, 461.282 212.088, 417.500 201.420 C 395.958 196.171, 372.141 194.754, 351.907 197.515 M 603.500 535.668 C 558.385 541.210, 528.333 556.297, 517.701 578.741 C 514.764 584.944, 514.500 586.323, 514.500 595.500 C 514.500 604.677, 514.764 606.056, 517.701 612.259 C 527.162 632.230, 552.177 646.578, 589 653.154 C 605.343 656.072, 638.076 656.794, 654.695 654.602 C 695.720 649.191, 725.120 633.746, 735.299 612.259 C 738.240 606.049, 738.500 604.683, 738.500 595.448 C 738.500 585.850, 738.331 585.054, 734.754 577.816 C 721.495 550.989, 679.475 534.699, 624.699 535.150 C 614.689 535.232, 605.150 535.466, 603.500 535.668 M 610 575.599 C 584.453 578.638, 565.376 584.807, 556.751 592.819 L 554.002 595.373 556.229 597.743 C 561.934 603.817, 578.423 610.306, 596.500 613.592 C 604 614.956, 611.501 615.410, 626.500 615.410 C 648.842 615.410, 659.915 613.925, 675.500 608.835 C 684.923 605.758, 690.702 602.805, 695.963 598.378 L 699.101 595.737 696.823 593.311 C 691.102 587.222, 674.507 580.652, 657 577.545 C 647.907 575.931, 617.716 574.681, 610 575.599" stroke="none" fill="#040404" fill-rule="evenodd"/></svg>