<svg xmlns="http://www.w3.org/2000/svg" width="750" height="750" viewBox="0 0 750 750" version="1.1"><path d="M 610 134.599 C 584.453 137.638, 565.376 143.807, 556.751 151.819 L 554.002 154.373 556.229 156.743 C 561.934 162.817, 578.423 169.306, 596.500 172.592 C 610.538 175.145, 642.462 175.145, 656.500 172.592 C 674.312 169.354, 688.003 164.076, 695.963 157.378 L 699.101 154.737 696.823 152.311 C 691.102 146.222, 674.507 139.652, 657 136.545 C 647.907 134.931, 617.716 133.681, 610 134.599 M 351.907 196.515 C 268.634 207.882, 205.224 272.860, 196.067 356.211 C 188.652 423.699, 221.396 490.993, 279.353 527.380 C 351.948 572.956, 446.247 560.829, 504.858 498.379 C 550.322 449.938, 565.459 381.875, 544.859 318.523 C 541.293 307.557, 531.849 287.724, 525.468 277.801 C 500.765 239.385, 461.282 211.088, 417.500 200.420 C 395.958 195.171, 372.141 193.754, 351.907 196.515 M 692.484 462.817 C 683.360 465.994, 670.357 473.357, 659.745 481.357 C 650.752 488.137, 635.562 503.111, 627.807 512.844 C 615.797 527.916, 605.047 549.801, 605.013 559.250 C 605 562.921, 605.079 563, 608.750 562.987 C 617.827 562.954, 637.456 553.543, 653.271 541.640 C 662.595 534.622, 679.622 517.595, 686.640 508.271 C 698.543 492.456, 707.954 472.827, 707.987 463.750 C 708 460.079, 707.921 460, 704.250 460.013 C 702.188 460.021, 696.893 461.283, 692.484 462.817" stroke="none" fill="#fbfbfb" fill-rule="evenodd"/><path d="M 596.414 95.578 C 557.155 100.920, 527.660 116.719, 517.701 137.741 C 514.764 143.944, 514.500 145.323, 514.500 154.500 C 514.500 163.677, 514.764 165.056, 517.701 171.259 C 527.162 191.230, 552.177 205.578, 589 212.154 C 605.343 215.072, 638.076 215.794, 654.695 213.602 C 695.720 208.191, 725.120 192.746, 735.299 171.259 C 738.240 165.049, 738.500 163.683, 738.500 154.448 C 738.500 144.850, 738.331 144.054, 734.754 136.816 C 724.271 115.606, 695.626 100.832, 654.699 95.529 C 640.172 93.647, 610.425 93.672, 596.414 95.578 M 610 134.599 C 584.453 137.638, 565.376 143.807, 556.751 151.819 L 554.002 154.373 556.229 156.743 C 561.934 162.817, 578.423 169.306, 596.500 172.592 C 610.538 175.145, 642.462 175.145, 656.500 172.592 C 674.312 169.354, 688.003 164.076, 695.963 157.378 L 699.101 154.737 696.823 152.311 C 691.102 146.222, 674.507 139.652, 657 136.545 C 647.907 134.931, 617.716 133.681, 610 134.599 M 345.500 156.552 C 262.205 167.766, 192.468 225.757, 165.669 306.094 C 158.362 327.998, 155.039 349.540, 155.039 375 C 155.039 400.460, 158.362 422.002, 165.669 443.906 C 184.644 500.787, 225.034 547.012, 278.500 573.037 C 309.581 588.166, 339.454 595, 374.500 595 C 409.546 595, 439.419 588.166, 470.500 573.037 C 523.966 547.012, 564.356 500.787, 583.331 443.906 C 590.638 422.002, 593.961 400.460, 593.961 375 C 593.961 349.540, 590.638 327.998, 583.331 306.094 C 556.415 225.406, 486.316 167.364, 402.699 156.529 C 388.286 154.662, 359.458 154.673, 345.500 156.552 M 351.907 196.515 C 268.634 207.882, 205.224 272.860, 196.067 356.211 C 188.652 423.699, 221.396 490.993, 279.353 527.380 C 351.948 572.956, 446.247 560.829, 504.858 498.379 C 550.322 449.938, 565.459 381.875, 544.859 318.523 C 541.293 307.557, 531.849 287.724, 525.468 277.801 C 500.765 239.385, 461.282 211.088, 417.500 200.420 C 395.958 195.171, 372.141 193.754, 351.907 196.515 M 686.235 422.493 C 638.339 434.870, 579.466 493.812, 567.488 541.378 C 563.381 557.687, 564.401 573.062, 570.251 583 C 587.566 612.420, 631.188 609.106, 676 574.966 C 718.600 542.510, 748 496.812, 748 463.053 C 748 430.133, 722.208 413.196, 686.235 422.493 M 692.484 462.817 C 683.360 465.994, 670.357 473.357, 659.745 481.357 C 650.752 488.137, 635.562 503.111, 627.807 512.844 C 615.797 527.916, 605.047 549.801, 605.013 559.250 C 605 562.921, 605.079 563, 608.750 562.987 C 617.827 562.954, 637.456 553.543, 653.271 541.640 C 662.595 534.622, 679.622 517.595, 686.640 508.271 C 698.543 492.456, 707.954 472.827, 707.987 463.750 C 708 460.079, 707.921 460, 704.250 460.013 C 702.188 460.021, 696.893 461.283, 692.484 462.817" stroke="none" fill="#040404" fill-rule="evenodd"/></svg>