<svg xmlns="http://www.w3.org/2000/svg" width="750" height="750" viewBox="0 0 750 750" version="1.1"><path d="M 614.500 136.016 C 590.198 137.802, 565.622 145.386, 558.064 153.432 L 555.899 155.737 559.199 158.527 C 566.951 165.080, 585.424 171.457, 604.044 174.006 C 616.410 175.699, 641.677 175.423, 654 173.459 C 673.211 170.398, 691.104 163.776, 696.936 157.568 L 699.101 155.263 695.801 152.473 C 682.194 140.970, 646.203 133.685, 614.500 136.016 M 363 197.101 C 306.926 200.784, 253.837 232.858, 223.816 281.188 C 175.862 358.388, 193.190 459.646, 263.997 515.982 C 275.974 525.512, 283.579 530.257, 298.500 537.512 C 339.476 557.436, 385.943 560.746, 429.880 546.871 C 440.807 543.420, 462.326 533.253, 472 526.969 C 493.743 512.847, 513.670 492.569, 527.184 470.812 C 563.284 412.696, 563.284 339.304, 527.184 281.188 C 513.450 259.078, 493.591 238.988, 471.186 224.537 C 448.677 210.020, 416.072 198.995, 391.122 197.463 C 386.380 197.171, 380.700 196.801, 378.500 196.639 C 376.300 196.477, 369.325 196.685, 363 197.101 M 614.500 576.016 C 590.198 577.802, 565.622 585.386, 558.064 593.432 L 555.899 595.737 559.199 598.527 C 566.951 605.080, 585.424 611.457, 604.044 614.006 C 616.410 615.699, 641.677 615.423, 654 613.459 C 673.211 610.398, 691.104 603.776, 696.936 597.568 L 699.101 595.263 695.801 592.473 C 682.194 580.970, 646.203 573.685, 614.500 576.016" stroke="none" fill="#ffffff" fill-rule="evenodd"/><path d="M 604.500 95.668 C 559.385 101.210, 529.333 116.297, 518.701 138.741 C 515.764 144.944, 515.500 146.323, 515.500 155.500 C 515.500 164.677, 515.764 166.056, 518.701 172.259 C 528.162 192.230, 553.177 206.578, 590 213.154 C 606.343 216.072, 639.076 216.794, 655.695 214.602 C 696.720 209.191, 726.120 193.746, 736.299 172.259 C 739.240 166.049, 739.500 164.683, 739.500 155.448 C 739.500 145.850, 739.331 145.054, 735.754 137.816 C 722.495 110.989, 680.475 94.699, 625.699 95.150 C 615.689 95.232, 606.150 95.466, 604.500 95.668 M 599.668 136.568 C 581.823 139.344, 562.610 146.504, 557.033 152.457 C 554.002 155.692, 554.691 157.170, 561.335 161.681 C 574.184 170.407, 593.587 174.952, 621.222 175.712 C 643.157 176.315, 654.826 175.274, 669.884 171.370 C 684.876 167.483, 700 159.513, 700 155.500 C 700 151.787, 685.688 143.932, 671.963 140.112 C 658.796 136.448, 645.705 135.006, 626.500 135.103 C 616.600 135.153, 604.526 135.812, 599.668 136.568 M 346.500 157.552 C 263.205 168.766, 193.468 226.757, 166.669 307.094 C 159.362 328.998, 156.039 350.540, 156.039 376 C 156.039 401.460, 159.362 423.002, 166.669 444.906 C 185.644 501.787, 226.034 548.012, 279.500 574.037 C 310.581 589.166, 340.454 596, 375.500 596 C 410.546 596, 440.419 589.166, 471.500 574.037 C 524.966 548.012, 565.356 501.787, 584.331 444.906 C 591.638 423.002, 594.961 401.460, 594.961 376 C 594.961 350.540, 591.638 328.998, 584.331 307.094 C 557.415 226.406, 487.316 168.364, 403.699 157.529 C 389.286 155.662, 360.458 155.673, 346.500 157.552 M 348.500 197.529 C 304.587 204.575, 266.249 226.115, 238.202 259.500 C 216.175 285.718, 202.596 315.821, 197.477 349.780 C 196.642 355.319, 196.012 366.597, 196.012 376 C 196.012 405.534, 201.198 428.783, 213.539 454.575 C 237.758 505.192, 285.218 541.869, 341.166 553.204 C 351.037 555.204, 355.468 555.500, 375.500 555.500 C 395.532 555.500, 399.963 555.204, 409.834 553.204 C 485.321 537.910, 542.056 478.295, 553.523 402.220 C 555.439 389.508, 555.423 362.387, 553.492 349.573 C 542.076 273.832, 485.336 214.101, 410.379 198.918 C 396.248 196.056, 362.416 195.297, 348.500 197.529 M 604.500 535.668 C 559.385 541.210, 529.333 556.297, 518.701 578.741 C 515.764 584.944, 515.500 586.323, 515.500 595.500 C 515.500 604.677, 515.764 606.056, 518.701 612.259 C 528.162 632.230, 553.177 646.578, 590 653.154 C 606.343 656.072, 639.076 656.794, 655.695 654.602 C 696.720 649.191, 726.120 633.746, 736.299 612.259 C 739.240 606.049, 739.500 604.683, 739.500 595.448 C 739.500 585.850, 739.331 585.054, 735.754 577.816 C 722.495 550.989, 680.475 534.699, 625.699 535.150 C 615.689 535.232, 606.150 535.466, 604.500 535.668 M 599.668 576.568 C 581.823 579.344, 562.610 586.504, 557.033 592.457 C 554.002 595.692, 554.691 597.170, 561.335 601.681 C 574.184 610.407, 593.587 614.952, 621.222 615.712 C 643.157 616.315, 654.826 615.274, 669.884 611.370 C 684.876 607.483, 700 599.513, 700 595.500 C 700 591.787, 685.688 583.932, 671.963 580.112 C 658.796 576.448, 645.705 575.006, 626.500 575.103 C 616.600 575.153, 604.526 575.812, 599.668 576.568" stroke="none" fill="#000000" fill-rule="evenodd"/><path d="M 616.250 135.716 C 617.763 135.945, 620.237 135.945, 621.750 135.716 C 623.263 135.487, 622.025 135.300, 619 135.300 C 615.975 135.300, 614.737 135.487, 616.250 135.716 M 633.250 135.716 C 634.763 135.945, 637.237 135.945, 638.750 135.716 C 640.263 135.487, 639.025 135.300, 636 135.300 C 632.975 135.300, 631.737 135.487, 633.250 135.716 M 558.493 152.141 L 554.916 155.281 557.208 157.732 C 558.469 159.081, 560.400 160.650, 561.500 161.220 C 562.600 161.790, 561.744 160.713, 559.597 158.826 L 555.695 155.397 559.575 152.199 C 561.709 150.439, 563.144 149, 562.763 149 C 562.381 149, 560.460 150.413, 558.493 152.141 M 695.310 152.018 L 699.119 155.244 696.810 157.872 L 694.500 160.500 697.256 158.070 L 700.011 155.641 697.756 153.229 C 696.515 151.902, 694.600 150.361, 693.500 149.805 C 692.400 149.248, 693.214 150.244, 695.310 152.018 M 616.750 175.723 C 618.538 175.945, 621.462 175.945, 623.250 175.723 C 625.038 175.502, 623.575 175.320, 620 175.320 C 616.425 175.320, 614.962 175.502, 616.750 175.723 M 632.768 175.725 C 634.565 175.947, 637.265 175.943, 638.768 175.715 C 640.271 175.486, 638.800 175.304, 635.500 175.310 C 632.200 175.315, 630.971 175.502, 632.768 175.725 M 364.750 196.723 C 366.538 196.945, 369.462 196.945, 371.250 196.723 C 373.038 196.502, 371.575 196.320, 368 196.320 C 364.425 196.320, 362.962 196.502, 364.750 196.723 M 379.750 196.723 C 381.538 196.945, 384.462 196.945, 386.250 196.723 C 388.038 196.502, 386.575 196.320, 383 196.320 C 379.425 196.320, 377.962 196.502, 379.750 196.723 M 294.750 215.068 C 292.688 216.157, 291 217.271, 291 217.544 C 291 217.990, 298.899 214.298, 299.917 213.377 C 301.067 212.336, 298.064 213.319, 294.750 215.068 M 451.083 213.377 C 452.106 214.303, 460 217.989, 460 217.541 C 460 216.972, 452.453 213, 451.373 213 C 450.985 213, 450.854 213.170, 451.083 213.377 M 248.978 248.750 L 240.500 257.500 249.250 249.022 C 254.063 244.359, 258 240.422, 258 240.272 C 258 239.544, 256.852 240.623, 248.978 248.750 M 501 248.500 C 505.651 253.175, 509.681 257, 509.956 257 C 510.231 257, 506.651 253.175, 502 248.500 C 497.349 243.825, 493.319 240, 493.044 240 C 492.769 240, 496.349 243.825, 501 248.500 M 196.300 368 C 196.300 371.025, 196.487 372.262, 196.716 370.750 C 196.945 369.238, 196.945 366.762, 196.716 365.250 C 196.487 363.738, 196.300 364.975, 196.300 368 M 554.310 368.500 C 554.315 371.800, 554.502 373.029, 554.725 371.232 C 554.947 369.435, 554.943 366.735, 554.715 365.232 C 554.486 363.729, 554.304 365.200, 554.310 368.500 M 554.310 383.500 C 554.315 386.800, 554.502 388.029, 554.725 386.232 C 554.947 384.435, 554.943 381.735, 554.715 380.232 C 554.486 378.729, 554.304 380.200, 554.310 383.500 M 196.300 384 C 196.300 387.025, 196.487 388.262, 196.716 386.750 C 196.945 385.238, 196.945 382.762, 196.716 381.250 C 196.487 379.738, 196.300 380.975, 196.300 384 M 249 503.500 C 253.651 508.175, 257.681 512, 257.956 512 C 258.231 512, 254.651 508.175, 250 503.500 C 245.349 498.825, 241.319 495, 241.044 495 C 240.769 495, 244.349 498.825, 249 503.500 M 500.978 503.750 L 492.500 512.500 501.250 504.022 C 509.377 496.148, 510.456 495, 509.728 495 C 509.578 495, 505.641 498.938, 500.978 503.750 M 364.728 555.722 C 366.503 555.943, 369.653 555.946, 371.728 555.730 C 373.802 555.513, 372.350 555.333, 368.500 555.328 C 364.650 555.324, 362.952 555.501, 364.728 555.722 M 378.728 555.722 C 380.503 555.943, 383.653 555.946, 385.728 555.730 C 387.802 555.513, 386.350 555.333, 382.500 555.328 C 378.650 555.324, 376.952 555.501, 378.728 555.722 M 616.250 575.716 C 617.763 575.945, 620.237 575.945, 621.750 575.716 C 623.263 575.487, 622.025 575.300, 619 575.300 C 615.975 575.300, 614.737 575.487, 616.250 575.716 M 633.250 575.716 C 634.763 575.945, 637.237 575.945, 638.750 575.716 C 640.263 575.487, 639.025 575.300, 636 575.300 C 632.975 575.300, 631.737 575.487, 633.250 575.716 M 558.493 592.141 L 554.916 595.281 557.208 597.732 C 558.469 599.081, 560.400 600.650, 561.500 601.220 C 562.600 601.790, 561.744 600.713, 559.597 598.826 L 555.695 595.397 559.575 592.199 C 561.709 590.439, 563.144 589, 562.763 589 C 562.381 589, 560.460 590.413, 558.493 592.141 M 695.310 592.018 L 699.119 595.244 696.810 597.872 L 694.500 600.500 697.256 598.070 L 700.011 595.641 697.756 593.229 C 696.515 591.902, 694.600 590.361, 693.500 589.805 C 692.400 589.248, 693.214 590.244, 695.310 592.018 M 616.750 615.723 C 618.538 615.945, 621.462 615.945, 623.250 615.723 C 625.038 615.502, 623.575 615.320, 620 615.320 C 616.425 615.320, 614.962 615.502, 616.750 615.723 M 632.768 615.725 C 634.565 615.947, 637.265 615.943, 638.768 615.715 C 640.271 615.486, 638.800 615.304, 635.500 615.310 C 632.200 615.315, 630.971 615.502, 632.768 615.725" stroke="none" fill="#fbfbfb" fill-rule="evenodd"/><path d="M 696.967 158.282 C 695.574 159.502, 693.324 161.307, 691.967 162.294 C 689.595 164.018, 689.627 164.018, 692.810 162.294 C 694.630 161.307, 697.071 159.488, 698.234 158.250 C 700.926 155.386, 700.254 155.403, 696.967 158.282 M 248 248.500 C 243.903 252.625, 240.775 256, 241.050 256 C 241.325 256, 244.903 252.625, 249 248.500 C 253.097 244.375, 256.225 241, 255.950 241 C 255.675 241, 252.097 244.375, 248 248.500 M 495 241.275 C 495 241.426, 498.488 244.914, 502.750 249.025 L 510.500 256.500 503.025 248.750 C 496.082 241.552, 495 240.544, 495 241.275 M 535.710 295.465 C 537.742 299.570, 539.567 302.767, 539.766 302.567 C 540.212 302.122, 533.164 288, 532.496 288 C 532.232 288, 533.679 291.359, 535.710 295.465 M 212.679 298.546 C 210.330 303.473, 210.661 304.311, 213.116 299.656 C 214.232 297.541, 214.968 295.634, 214.752 295.418 C 214.535 295.202, 213.603 296.610, 212.679 298.546 M 211.084 449.500 C 211.084 450.050, 211.946 452.075, 213 454 C 214.054 455.925, 214.916 457.050, 214.916 456.500 C 214.916 455.950, 214.054 453.925, 213 452 C 211.946 450.075, 211.084 448.950, 211.084 449.500 M 537.679 452.546 C 535.330 457.473, 535.661 458.311, 538.116 453.656 C 539.232 451.541, 539.968 449.634, 539.752 449.418 C 539.535 449.202, 538.603 450.610, 537.679 452.546 M 241 496.275 C 241 496.426, 244.488 499.914, 248.750 504.025 L 256.500 511.500 249.025 503.750 C 242.082 496.552, 241 495.544, 241 496.275 M 502 503.500 C 497.903 507.625, 494.775 511, 495.050 511 C 495.325 511, 498.903 507.625, 503 503.500 C 507.097 499.375, 510.225 496, 509.950 496 C 509.675 496, 506.097 499.375, 502 503.500 M 258.310 512.693 C 259.151 514.053, 267 520.386, 267 519.704 C 267 519.450, 264.883 517.507, 262.297 515.387 C 259.710 513.267, 257.916 512.055, 258.310 512.693 M 488 516.136 L 483.500 520.211 487.736 517.033 C 491.420 514.268, 493.786 511.936, 492.809 512.030 C 492.639 512.046, 490.475 513.894, 488 516.136 M 696.967 598.282 C 695.574 599.502, 693.324 601.307, 691.967 602.294 C 689.595 604.018, 689.627 604.018, 692.810 602.294 C 694.630 601.307, 697.071 599.487, 698.234 598.250 C 700.926 595.386, 700.254 595.403, 696.967 598.282" stroke="none" fill="#040404" fill-rule="evenodd"/></svg>